<svg xmlns="http://www.w3.org/2000/svg" viewBox="0 0 32 54"><defs><style>.cls-1{fill:#333;}.cls-2{fill:#f0f0f0;}</style></defs><title>family-chapternav-iPhone-6-lf-lily</title><g id="Dark"><path class="cls-1" d="M28.81,9H14.19A3.2,3.2,0,0,0,11,12.21V47.82A3.2,3.2,0,0,0,14.19,51H28.81A3.2,3.2,0,0,0,32,47.82V12.21A3.2,3.2,0,0,0,28.81,9ZM20,15.77A2.26,2.26,0,0,1,17.75,18h-3.5A2.26,2.26,0,0,1,12,15.77v-3.5A2.26,2.26,0,0,1,14.25,10h3.5A2.26,2.26,0,0,1,20,12.27Z"/><path class="cls-2" d="M18.35,12.74a.9.9,0,1,1-.9.9.9.9,0,0,1,.9-.9m0-.25a1.15,1.15,0,1,0,1.15,1.15,1.15,1.15,0,0,0-1.15-1.15Z"/><path class="cls-2" d="M15.65,11.17a.9.9,0,1,1-.9.9.9.9,0,0,1,.9-.9m0-.25a1.15,1.15,0,1,0,1.15,1.15,1.15,1.15,0,0,0-1.15-1.15Z"/><path class="cls-2" d="M15.65,14.31a.9.9,0,1,1-.9.9.9.9,0,0,1,.9-.9m0-.25a1.15,1.15,0,1,0,1.15,1.15,1.15,1.15,0,0,0-1.15-1.15Z"/></g><g id="Light"><path class="cls-1" d="M19,5H3A3,3,0,0,0,0,8V48a3,3,0,0,0,3,3h8.51A4.17,4.17,0,0,1,10,47.82V12.21A4.19,4.19,0,0,1,14,8V8h8A3,3,0,0,0,19,5ZM9,11.77A2.26,2.26,0,0,1,6.75,14H3.25A2.26,2.26,0,0,1,1,11.77V8.27A2.26,2.26,0,0,1,3.25,6h3.5A2.26,2.26,0,0,1,9,8.27Z"/></g></svg>